<svg version="1.1" id="Layer_1" xmlns="http://www.w3.org/2000/svg" xmlns:xlink="http://www.w3.org/1999/xlink" x="0px" y="0px"
	 width="100%" viewBox="0 0 512 512" enable-background="new 0 0 512 512" xml:space="preserve">
<path fill="#000000" opacity="1.000000" stroke="none" 
	d="
M104.000000,513.000000 
	C95.645767,513.000000 87.291534,513.000000 78.326630,512.609985 
	C72.995193,511.195099 68.143829,510.568939 63.577423,509.072937 
	C47.969997,503.959869 34.432030,495.687134 23.477318,483.127808 
	C16.242933,474.833740 10.483345,465.833221 6.906275,455.491486 
	C4.688729,449.080383 2.952353,442.502838 1.000001,436.000000 
	C1.000000,427.645782 1.000000,419.291534 1.390000,410.326660 
	C3.524168,402.878510 4.612270,395.786743 7.144233,389.254639 
	C13.060985,373.990295 22.504650,360.904205 35.683624,351.204987 
	C52.816841,338.595612 72.007996,332.117798 93.764076,332.806702 
	C111.831749,333.378815 127.764320,339.055695 142.701416,348.668640 
	C195.378250,304.392761 192.413406,205.665604 142.612381,165.382843 
	C117.963898,181.578796 91.583405,185.572678 63.550545,177.030899 
	C47.846016,172.245636 34.418800,163.659775 23.462482,151.113159 
	C16.224352,142.824417 10.486638,133.815918 6.902773,123.484344 
	C4.680474,117.077919 2.950798,110.500610 1.000000,104.000000 
	C1.000000,95.645767 1.000000,87.291534 1.390002,78.326637 
	C2.804835,72.995224 3.430964,68.143845 4.926966,63.577461 
	C10.040133,47.970070 18.312843,34.432060 30.872211,23.477364 
	C39.166283,16.242998 48.166782,10.483366 58.508499,6.906266 
	C64.919617,4.688723 71.497162,2.952355 78.000000,1.000000 
	C86.354233,1.000000 94.708466,1.000000 103.673363,1.390001 
	C111.121460,3.524169 118.213173,4.612312 124.745262,7.144238 
	C140.009628,13.060919 153.095779,22.504559 162.794983,35.683514 
	C175.404343,52.816692 181.882217,72.007843 181.193329,93.763924 
	C180.621216,111.831627 174.944366,127.764244 165.331375,142.701401 
	C209.605667,195.377014 308.332672,192.414703 348.617157,142.612473 
	C332.421387,117.963943 328.427246,91.583496 336.969055,63.550632 
	C341.754333,47.846111 350.340149,34.418827 362.886780,23.462513 
	C371.175507,16.224396 380.184021,10.486632 390.515625,6.902776 
	C396.922058,4.680492 403.499390,2.950797 410.000000,0.999999 
	C418.354218,1.000000 426.708466,1.000000 435.673340,1.389998 
	C441.004791,2.804838 445.856171,3.430979 450.422577,4.926982 
	C466.029999,10.040117 479.567993,18.312883 490.522705,30.872208 
	C497.757141,39.166260 503.516632,48.166843 507.093781,58.508522 
	C509.311371,64.919609 511.047638,71.497169 513.000000,78.000000 
	C513.000000,86.354233 513.000000,94.708466 512.609985,103.673378 
	C510.475830,111.121315 509.387543,118.212784 506.855804,124.744789 
	C500.939453,140.009369 491.495697,153.095490 478.316864,162.794754 
	C461.183746,175.404190 441.992554,181.882233 420.236389,181.193329 
	C402.168640,180.621201 386.235931,174.944565 371.298615,165.331406 
	C318.625244,209.602722 321.582886,308.329437 371.387360,348.617249 
	C396.035950,332.421539 422.416351,328.427094 450.449280,336.969025 
	C466.153778,341.754272 479.581146,350.340027 490.537445,362.886780 
	C497.775513,371.175568 503.513367,380.183990 507.097229,390.515594 
	C509.319489,396.922058 511.049194,403.499390 513.000000,410.000000 
	C513.000000,418.354218 513.000000,426.708466 512.609985,435.673370 
	C511.195129,441.004822 510.568939,445.856171 509.072968,450.422577 
	C503.959869,466.030029 495.687103,479.568024 483.127747,490.522705 
	C474.833679,497.757080 465.833191,503.516693 455.491516,507.093811 
	C449.080414,509.311340 442.502838,511.047638 436.000000,513.000000 
	C427.645782,513.000000 419.291534,513.000000 410.326630,512.609985 
	C402.878479,510.475800 395.786682,509.387756 389.254578,506.855774 
	C373.990265,500.938995 360.904083,491.495331 351.204895,478.316315 
	C338.595551,461.183075 332.117828,441.991913 332.806732,420.235809 
	C333.378845,402.168182 339.055756,386.235657 348.668640,371.298584 
	C304.393005,318.621979 205.665955,321.586365 165.406494,371.358368 
	C181.539688,396.041992 185.582275,422.414307 177.031693,450.449646 
	C172.242233,466.153046 163.659805,479.581207 151.113174,490.537537 
	C142.824417,497.775635 133.815887,503.513306 123.484337,507.097229 
	C117.077911,509.319519 110.500610,511.049225 104.000000,513.000000 
M394.895142,67.652290 
	C399.681244,60.239574 410.120392,57.686211 416.882721,63.643524 
	C428.313812,73.713745 439.084595,84.568726 449.699402,95.514229 
	C454.423187,100.385201 454.341156,106.996140 451.891449,112.947456 
	C449.232941,119.406006 443.690063,121.232536 436.786896,121.168571 
	C430.628021,121.111496 427.111450,117.192589 423.318909,113.993690 
	C413.583099,123.742889 404.078186,133.260895 394.647888,142.704208 
	C421.191589,157.652435 453.617950,150.439743 472.142944,124.267639 
	C486.934845,103.369720 485.328400,72.094833 467.878174,52.212147 
	C446.817719,28.216011 411.069122,25.002674 386.702026,44.085182 
	C366.005798,60.292896 355.390930,90.025597 370.947693,118.901764 
	C380.359161,109.493286 389.960602,99.894928 399.692474,90.166138 
	C392.740601,84.536354 391.054016,76.978386 394.895142,67.652290 
M89.002708,70.496185 
	C90.649399,68.844360 92.290222,67.186630 93.943863,65.541786 
	C99.154533,60.358799 105.632164,59.525120 112.041000,61.770126 
	C118.927086,64.182320 121.326447,69.788795 121.178497,77.211441 
	C121.055878,83.363396 117.191765,86.886131 114.002541,90.671532 
	C123.747185,100.414276 133.260925,109.926163 142.702316,119.365707 
	C157.687103,92.692802 150.377274,60.328907 124.252472,41.844585 
	C103.234718,26.973698 71.692505,28.716696 51.820065,46.483425 
	C27.553637,68.178535 25.450104,104.046577 44.401726,127.741158 
	C61.366581,148.951736 91.251343,158.159348 118.780373,143.057297 
	C109.391441,133.665909 99.794464,124.066437 89.908577,114.177963 
	C89.444458,114.729736 88.678024,115.846947 87.714027,116.754242 
	C80.328278,123.705513 67.399994,122.577469 62.364208,113.943230 
	C59.199329,108.516800 60.813885,98.759743 66.240822,93.278160 
	C73.626938,85.817650 81.078613,78.422035 89.002708,70.496185 
M364.000000,417.712891 
	C362.887482,433.027191 366.322205,447.090546 376.054230,459.179443 
	C386.212860,471.798279 399.165833,480.219788 415.469391,481.858307 
	C429.116211,483.229797 442.364105,481.299103 454.228302,473.367432 
	C469.590118,463.097443 479.739624,449.231628 481.833374,430.784424 
	C484.041504,411.330078 478.227448,394.441071 463.939331,380.203705 
	C446.280426,362.607452 415.334290,358.303406 395.056152,371.276367 
	C404.431946,380.659180 413.927429,390.161804 423.599762,399.841400 
	C427.459015,395.894653 431.826050,392.605835 438.510651,392.810272 
	C445.066284,393.010834 449.598969,395.734894 451.909058,401.273865 
	C453.983673,406.248230 454.805511,412.191559 450.749695,416.568298 
	C440.274445,427.872406 429.542694,438.959991 418.489014,449.697174 
	C413.624451,454.422394 407.012939,454.341003 401.060547,451.894318 
	C394.601318,449.239380 392.775879,443.703796 392.828796,436.800232 
	C392.876129,430.630219 396.815460,427.131104 399.673035,423.710144 
	C389.885620,413.916840 380.351440,404.376953 370.210693,394.230133 
	C368.145355,401.726074 366.072693,409.248657 364.000000,417.712891 
M120.007629,474.496124 
	C145.680222,460.488647 160.170715,426.157562 143.058502,395.188293 
	C133.659515,404.585052 124.060196,414.182068 114.145889,424.093994 
	C114.706863,424.558838 115.866737,425.290588 116.735771,426.278259 
	C121.543457,431.742218 122.407112,440.894623 119.363068,446.223419 
	C114.535515,454.674316 101.083107,455.604156 93.980194,448.500916 
	C84.437592,438.957886 74.786079,429.520447 65.393845,419.831665 
	C60.143726,414.415771 59.247272,405.040802 62.945057,399.593536 
	C67.986809,392.166443 77.518425,390.403107 85.068413,395.556152 
	C87.180260,396.997528 89.178360,398.605560 90.737511,399.770264 
	C100.471550,390.052429 109.988953,380.550873 120.041550,370.514984 
	C112.780495,368.326111 105.732063,365.071472 98.405418,364.225037 
	C82.579292,362.396729 67.695839,365.718903 54.920132,376.004059 
	C42.260117,386.196136 33.839119,399.096619 32.134937,415.353027 
	C30.069019,435.060120 35.970676,452.045044 50.541759,466.249756 
	C68.477104,483.734161 98.405098,487.032227 120.007629,474.496124 
z"/>
<path fill="#FFFFFF" opacity="1.000000" stroke="none" 
	d="
M409.531342,0.999999 
	C403.499390,2.950797 396.922058,4.680492 390.515625,6.902776 
	C380.184021,10.486632 371.175507,16.224396 362.886780,23.462513 
	C350.340149,34.418827 341.754333,47.846111 336.969055,63.550632 
	C328.427246,91.583496 332.421387,117.963943 348.617157,142.612473 
	C308.332672,192.414703 209.605667,195.377014 165.331375,142.701401 
	C174.944366,127.764244 180.621216,111.831627 181.193329,93.763924 
	C181.882217,72.007843 175.404343,52.816692 162.794983,35.683514 
	C153.095779,22.504559 140.009628,13.060919 124.745262,7.144238 
	C118.213173,4.612312 111.121460,3.524169 104.142014,1.390001 
	C205.687561,1.000000 307.375122,1.000000 409.531342,0.999999 
z"/>
<path fill="#FFFFFF" opacity="1.000000" stroke="none" 
	d="
M513.000000,409.531342 
	C511.049194,403.499390 509.319489,396.922058 507.097229,390.515594 
	C503.513367,380.183990 497.775513,371.175568 490.537445,362.886780 
	C479.581146,350.340027 466.153778,341.754272 450.449280,336.969025 
	C422.416351,328.427094 396.035950,332.421539 371.387360,348.617249 
	C321.582886,308.329437 318.625244,209.602722 371.298615,165.331406 
	C386.235931,174.944565 402.168640,180.621201 420.236389,181.193329 
	C441.992554,181.882233 461.183746,175.404190 478.316864,162.794754 
	C491.495697,153.095490 500.939453,140.009369 506.855804,124.744789 
	C509.387543,118.212784 510.475830,111.121315 512.609985,104.142029 
	C513.000000,205.687561 513.000000,307.375122 513.000000,409.531342 
z"/>
<path fill="#FFFFFF" opacity="1.000000" stroke="none" 
	d="
M1.000000,104.468658 
	C2.950798,110.500610 4.680474,117.077919 6.902773,123.484344 
	C10.486638,133.815918 16.224352,142.824417 23.462482,151.113159 
	C34.418800,163.659775 47.846016,172.245636 63.550545,177.030899 
	C91.583405,185.572678 117.963898,181.578796 142.612381,165.382843 
	C192.413406,205.665604 195.378250,304.392761 142.701416,348.668640 
	C127.764320,339.055695 111.831749,333.378815 93.764076,332.806702 
	C72.007996,332.117798 52.816841,338.595612 35.683624,351.204987 
	C22.504650,360.904205 13.060985,373.990295 7.144233,389.254639 
	C4.612270,395.786743 3.524168,402.878510 1.390000,409.857971 
	C1.000000,308.312439 1.000000,206.624878 1.000000,104.468658 
z"/>
<path fill="#FFFFFF" opacity="1.000000" stroke="none" 
	d="
M104.468658,513.000000 
	C110.500610,511.049225 117.077911,509.319519 123.484337,507.097229 
	C133.815887,503.513306 142.824417,497.775635 151.113174,490.537537 
	C163.659805,479.581207 172.242233,466.153046 177.031693,450.449646 
	C185.582275,422.414307 181.539688,396.041992 165.406494,371.358368 
	C205.665955,321.586365 304.393005,318.621979 348.668640,371.298584 
	C339.055756,386.235657 333.378845,402.168182 332.806732,420.235809 
	C332.117828,441.991913 338.595551,461.183075 351.204895,478.316315 
	C360.904083,491.495331 373.990265,500.938995 389.254578,506.855774 
	C395.786682,509.387756 402.878479,510.475800 409.857971,512.609985 
	C308.312439,513.000000 206.624878,513.000000 104.468658,513.000000 
z"/>
<path fill="#FFFFFF" opacity="1.000000" stroke="none" 
	d="
M77.531342,1.000000 
	C71.497162,2.952355 64.919617,4.688723 58.508499,6.906266 
	C48.166782,10.483366 39.166283,16.242998 30.872211,23.477364 
	C18.312843,34.432060 10.040133,47.970070 4.926966,63.577461 
	C3.430964,68.143845 2.804835,72.995224 1.390002,77.857986 
	C1.000000,52.406452 1.000000,26.812902 1.000000,1.000000 
	C26.353806,1.000000 51.708244,1.000000 77.531342,1.000000 
z"/>
<path fill="#FFFFFF" opacity="1.000000" stroke="none" 
	d="
M513.000000,77.531342 
	C511.047638,71.497169 509.311371,64.919609 507.093781,58.508522 
	C503.516632,48.166843 497.757141,39.166260 490.522705,30.872208 
	C479.567993,18.312883 466.029999,10.040117 450.422577,4.926982 
	C445.856171,3.430979 441.004791,2.804838 436.142029,1.389998 
	C461.593536,1.000000 487.187103,1.000000 513.000000,1.000000 
	C513.000000,26.353806 513.000000,51.708244 513.000000,77.531342 
z"/>
<path fill="#FFFFFF" opacity="1.000000" stroke="none" 
	d="
M1.000001,436.468658 
	C2.952353,442.502838 4.688729,449.080383 6.906275,455.491486 
	C10.483345,465.833221 16.242933,474.833740 23.477318,483.127808 
	C34.432030,495.687134 47.969997,503.959869 63.577423,509.072937 
	C68.143829,510.568939 72.995193,511.195099 77.857979,512.609985 
	C52.406456,513.000000 26.812908,513.000000 1.000000,513.000000 
	C1.000000,487.646179 1.000000,462.291748 1.000001,436.468658 
z"/>
<path fill="#FFFFFF" opacity="1.000000" stroke="none" 
	d="
M436.468658,513.000000 
	C442.502838,511.047638 449.080414,509.311340 455.491516,507.093811 
	C465.833191,503.516693 474.833679,497.757080 483.127747,490.522705 
	C495.687103,479.568024 503.959869,466.030029 509.072968,450.422577 
	C510.568939,445.856171 511.195129,441.004822 512.609985,436.142029 
	C513.000000,461.593536 513.000000,487.187103 513.000000,513.000000 
	C487.646179,513.000000 462.291748,513.000000 436.468658,513.000000 
z"/>
<path fill="#FFFFFF" opacity="1.000000" stroke="none" 
	d="
M394.592010,67.916702 
	C391.054016,76.978386 392.740601,84.536354 399.692474,90.166138 
	C389.960602,99.894928 380.359161,109.493286 370.947693,118.901764 
	C355.390930,90.025597 366.005798,60.292896 386.702026,44.085182 
	C411.069122,25.002674 446.817719,28.216011 467.878174,52.212147 
	C485.328400,72.094833 486.934845,103.369720 472.142944,124.267639 
	C453.617950,150.439743 421.191589,157.652435 394.647888,142.704208 
	C404.078186,133.260895 413.583099,123.742889 423.318909,113.993690 
	C427.111450,117.192589 430.628021,121.111496 436.786896,121.168571 
	C443.690063,121.232536 449.232941,119.406006 451.891449,112.947456 
	C454.341156,106.996140 454.423187,100.385201 449.699402,95.514229 
	C439.084595,84.568726 428.313812,73.713745 416.882721,63.643524 
	C410.120392,57.686211 399.681244,60.239574 394.592010,67.916702 
z"/>
<path fill="#FFFFFF" opacity="1.000000" stroke="none" 
	d="
M88.752441,70.747391 
	C81.078613,78.422035 73.626938,85.817650 66.240822,93.278160 
	C60.813885,98.759743 59.199329,108.516800 62.364208,113.943230 
	C67.399994,122.577469 80.328278,123.705513 87.714027,116.754242 
	C88.678024,115.846947 89.444458,114.729736 89.908577,114.177963 
	C99.794464,124.066437 109.391441,133.665909 118.780373,143.057297 
	C91.251343,158.159348 61.366581,148.951736 44.401726,127.741158 
	C25.450104,104.046577 27.553637,68.178535 51.820065,46.483425 
	C71.692505,28.716696 103.234718,26.973698 124.252472,41.844585 
	C150.377274,60.328907 157.687103,92.692802 142.702316,119.365707 
	C133.260925,109.926163 123.747185,100.414276 114.002541,90.671532 
	C117.191765,86.886131 121.055878,83.363396 121.178497,77.211441 
	C121.326447,69.788795 118.927086,64.182320 112.041000,61.770126 
	C105.632164,59.525120 99.154533,60.358799 93.943863,65.541786 
	C92.290222,67.186630 90.649399,68.844360 88.752441,70.747391 
z"/>
<path fill="#FFFFFF" opacity="1.000000" stroke="none" 
	d="
M364.000000,417.242065 
	C366.072693,409.248657 368.145355,401.726074 370.210693,394.230133 
	C380.351440,404.376953 389.885620,413.916840 399.673035,423.710144 
	C396.815460,427.131104 392.876129,430.630219 392.828796,436.800232 
	C392.775879,443.703796 394.601318,449.239380 401.060547,451.894318 
	C407.012939,454.341003 413.624451,454.422394 418.489014,449.697174 
	C429.542694,438.959991 440.274445,427.872406 450.749695,416.568298 
	C454.805511,412.191559 453.983673,406.248230 451.909058,401.273865 
	C449.598969,395.734894 445.066284,393.010834 438.510651,392.810272 
	C431.826050,392.605835 427.459015,395.894653 423.599762,399.841400 
	C413.927429,390.161804 404.431946,380.659180 395.056152,371.276367 
	C415.334290,358.303406 446.280426,362.607452 463.939331,380.203705 
	C478.227448,394.441071 484.041504,411.330078 481.833374,430.784424 
	C479.739624,449.231628 469.590118,463.097443 454.228302,473.367432 
	C442.364105,481.299103 429.116211,483.229797 415.469391,481.858307 
	C399.165833,480.219788 386.212860,471.798279 376.054230,459.179443 
	C366.322205,447.090546 362.887482,433.027191 364.000000,417.242065 
z"/>
<path fill="#FFFFFF" opacity="1.000000" stroke="none" 
	d="
M119.732994,474.761444 
	C98.405098,487.032227 68.477104,483.734161 50.541759,466.249756 
	C35.970676,452.045044 30.069019,435.060120 32.134937,415.353027 
	C33.839119,399.096619 42.260117,386.196136 54.920132,376.004059 
	C67.695839,365.718903 82.579292,362.396729 98.405418,364.225037 
	C105.732063,365.071472 112.780495,368.326111 120.041550,370.514984 
	C109.988953,380.550873 100.471550,390.052429 90.737511,399.770264 
	C89.178360,398.605560 87.180260,396.997528 85.068413,395.556152 
	C77.518425,390.403107 67.986809,392.166443 62.945057,399.593536 
	C59.247272,405.040802 60.143726,414.415771 65.393845,419.831665 
	C74.786079,429.520447 84.437592,438.957886 93.980194,448.500916 
	C101.083107,455.604156 114.535515,454.674316 119.363068,446.223419 
	C122.407112,440.894623 121.543457,431.742218 116.735771,426.278259 
	C115.866737,425.290588 114.706863,424.558838 114.145889,424.093994 
	C124.060196,414.182068 133.659515,404.585052 143.058502,395.188293 
	C160.170715,426.157562 145.680222,460.488647 119.732994,474.761444 
z"/>
</svg>